<?xml version="1.0" encoding="UTF-8" standalone="no"?>
<!-- Created with Inkscape (http://www.inkscape.org/) -->

<svg
   width="297.0mm"
   height="420.0mm"
   viewBox="0 0 297.0 420.0"
   version="1.1"
   id="SVGRoot"
   sodipodi:docname="background.svg"
   inkscape:version="1.1 (c68e22c387, 2021-05-23)"
   xmlns:inkscape="http://www.inkscape.org/namespaces/inkscape"
   xmlns:sodipodi="http://sodipodi.sourceforge.net/DTD/sodipodi-0.dtd"
   xmlns="http://www.w3.org/2000/svg"
   xmlns:svg="http://www.w3.org/2000/svg">
  <sodipodi:namedview
     id="namedview829"
     pagecolor="#ffffff"
     bordercolor="#999999"
     borderopacity="1"
     inkscape:pageshadow="0"
     inkscape:pageopacity="0"
     inkscape:pagecheckerboard="0"
     inkscape:document-units="mm"
     showgrid="false"
     inkscape:zoom="0.51150168"
     inkscape:cx="625.60889"
     inkscape:cy="861.18974"
     inkscape:window-width="1920"
     inkscape:window-height="1001"
     inkscape:window-x="-9"
     inkscape:window-y="-9"
     inkscape:window-maximized="1"
     inkscape:current-layer="layer1" />
  <defs
     id="defs824" />
  <g
     inkscape:label="Layer 1"
     inkscape:groupmode="layer"
     id="layer1">
    <rect
       style="fill:#f5f7fb;fill-opacity:1;stroke-width:0.714375;stroke-linecap:round;stroke-linejoin:round"
       id="rect1361"
       width="296.66019"
       height="311.54175"
       x="0.33976951"
       y="49.832592"
       rx="4.7624998"
       ry="1.4630502" />
    <path
       style="fill:none;stroke:none;stroke-width:0.264583px;stroke-linecap:butt;stroke-linejoin:miter;stroke-opacity:1"
       d="m -32.187192,282.36944 c 44.179701,-8.16941 80.374198,-17.60149 96.31443,-2.06424 22.220223,21.65848 44.718272,42.8194 32.434337,101.55194 L -47.54926,426.48028 Z"
       id="path1437"
       sodipodi:nodetypes="csccc" />
    <path
       style="fill:#deebf8;fill-opacity:1;stroke:none;stroke-width:3.73252;stroke-linecap:round;stroke-linejoin:round"
       d="M 0.7954113,1377.5544 C -0.34713702,1296.0242 -0.37117366,1165.9711 -0.32042712,1158.9848 165.17644,1080.4823 381.34775,1124.7369 340.7184,1371.2008 c -105.36493,4.0115 -282.81311,12.4443 -339.9229887,6.3536 z"
       id="path1803"
       transform="scale(0.26458333)"
       sodipodi:nodetypes="cccc" />
    <path
       style="fill:none;stroke:none;stroke-width:0.264583px;stroke-linecap:butt;stroke-linejoin:miter;stroke-opacity:1"
       d="m 195.00995,28.966996 c 61.86689,83.706264 64.40944,77.734974 124.66153,118.971584 L 317.08513,13.448962 191.38907,29.484261 Z"
       id="path2200"
       sodipodi:nodetypes="ccccc" />
    <path
       style="fill:#fffad1;fill-opacity:1;stroke:none;stroke-width:5.27857;stroke-linecap:round;stroke-linejoin:round"
       d="M 1082.0827,472.36212 C 987.74097,408.95795 945.65458,370.98405 874.91067,285.43406 850.74841,256.21485 800.58388,192.2454 800.58388,190.65308 c 0,-1.6801 315.53852,-1.08151 318.19282,0.60362 1.9437,1.23407 2.3513,33.37267 1.955,154.15142 l -0.5008,152.59228 z"
       id="path2600"
       transform="scale(0.26458333)" />
  </g>
</svg>
